<svg width="48" height="48" viewBox="0 0 48 48" fill="none" xmlns="http://www.w3.org/2000/svg">
<path fill-rule="evenodd" clip-rule="evenodd" d="M22.4995 7.56726C14.0898 8.32511 7.49951 15.3929 7.49951 24C7.49951 33.1127 14.8868 40.5 23.9995 40.5C28.6423 40.5 32.8366 38.5839 35.8365 35.4951L23.0567 25.1666C22.7043 24.8818 22.4995 24.4531 22.4995 24V7.56726ZM25.4995 7.56726V22.5H40.4322C39.7189 14.5843 33.4152 8.28059 25.4995 7.56726ZM40.4323 25.5H28.2419L37.7236 33.1631C39.216 30.9328 40.1785 28.3194 40.4323 25.5ZM4.49951 24C4.49951 13.2304 13.23 4.5 23.9995 4.5C34.7691 4.5 43.4995 13.2304 43.4995 24C43.4995 28.6424 41.8754 32.9095 39.1656 36.2582C35.5931 40.6731 30.1259 43.5 23.9995 43.5C13.23 43.5 4.49951 34.7696 4.49951 24Z" fill="#25D366"/>
</svg>
