<svg width="239" height="37" viewBox="0 0 239 37" fill="none" xmlns="http://www.w3.org/2000/svg">
<path d="M92.2227 15.4626C91.9859 14.8484 91.5641 14.6153 90.9018 14.6153H90.3838V9.52783H93.8211C95.8006 9.52783 96.7404 10.1383 97.3546 11.7885L101.876 24.4129C102.394 25.8263 102.771 27.8502 102.771 27.8502H102.864C102.864 27.8502 103.241 25.8263 103.711 24.4129L108.233 11.7885C108.847 10.1383 109.835 9.52783 111.766 9.52783H114.97V14.6153H114.404C113.746 14.6153 113.32 14.8521 113.087 15.4626L106.209 33.5482H99.0973L92.2227 15.4626Z" fill="#0061FE"/>
<path d="M119.592 15.6511C119.592 14.9444 119.214 14.6151 118.556 14.6151H116.672V9.52762H122.37C124.583 9.52762 125.526 10.5155 125.526 12.7318V27.4763C125.526 28.1349 125.904 28.5123 126.562 28.5123H128.446V33.5517H122.748C120.535 33.5517 119.592 32.6082 119.592 30.3475V15.6511ZM119.873 0.107422H125.053V5.61671H119.873V0.107422Z" fill="#0061FE"/>
<path d="M131.369 15.6513C131.369 14.9446 130.992 14.6153 130.333 14.6153H128.45V9.52783H134.148C136.36 9.52783 137.304 10.5157 137.304 12.6839V23.7543C137.304 26.6736 138.059 28.6531 141.026 28.6531C145.359 28.6531 147.76 24.8384 147.76 20.5501V9.52783H153.743V27.4728C153.743 28.1314 154.12 28.5088 154.779 28.5088H156.662V33.5482H151.149C149.077 33.5482 147.993 32.5603 147.993 30.862V30.2034C147.993 29.6373 148.041 29.1193 148.041 29.1193H147.949C146.817 31.6168 143.805 34.1106 139.657 34.1106C134.521 34.1106 131.365 31.5206 131.365 24.9716V15.6513H131.369Z" fill="#0061FE"/>
<path d="M159.392 15.6513C159.392 14.9446 159.015 14.6153 158.356 14.6153H156.473V9.52783H162.171C164.384 9.52783 165.327 10.5157 165.327 12.6839V23.7543C165.327 26.6736 166.082 28.6531 169.049 28.6531C173.382 28.6531 175.783 24.8384 175.783 20.5501V9.52783H181.766V27.4728C181.766 28.1314 182.144 28.5088 182.802 28.5088H184.686V33.5482H179.176C177.104 33.5482 176.02 32.5603 176.02 30.862V30.2034C176.02 29.6373 176.068 29.1193 176.068 29.1193H175.976C174.844 31.6168 171.832 34.1106 167.684 34.1106C162.549 34.1106 159.392 31.5206 159.392 24.9716V15.6513Z" fill="#0061FE"/>
<path d="M187.513 15.6512C187.513 14.9445 187.135 14.6152 186.477 14.6152H184.593V9.52774H190.106C192.226 9.52774 193.262 10.5156 193.262 12.2139V12.9206C193.262 13.4386 193.214 13.9566 193.214 13.9566H193.307C194.439 11.5997 197.31 8.96533 201.077 8.96533C204.703 8.96533 207.06 10.6599 208.096 13.9122H208.188C209.461 11.3222 212.569 8.96533 216.384 8.96533C221.375 8.96533 224.25 11.7921 224.25 18.1043V27.4764C224.25 28.135 224.627 28.5124 225.286 28.5124H227.121V33.5518H221.467C219.207 33.5518 218.263 32.6083 218.263 30.3476V19.2328C218.263 16.5022 217.745 14.4302 214.967 14.4302C211.999 14.4302 209.879 16.9277 209.22 19.9395C208.939 20.883 208.843 21.8709 208.843 22.9994V33.5518H202.86V19.2328C202.86 16.6428 202.483 14.4302 199.612 14.4302C196.596 14.4302 194.572 16.9277 193.817 19.9876C193.581 20.9311 193.44 21.919 193.44 23.0031V33.5555H187.505V15.6512H187.513Z" fill="#0061FE"/>
<path d="M230.096 15.6511C230.096 14.9444 229.718 14.6151 229.06 14.6151H227.176V9.52762H232.874C235.087 9.52762 236.03 10.5155 236.03 12.7318V27.4763C236.03 28.1349 236.408 28.5123 237.066 28.5123H238.95V33.5517H233.252C231.039 33.5517 230.096 32.6082 230.096 30.3475V15.6511ZM230.377 0.107422H235.557V5.61671H230.377V0.107422Z" fill="#0061FE"/>
<path d="M24.5534 5.60938C32.3012 5.60938 38.5837 11.892 38.5837 19.6398C38.5837 27.3876 32.3012 33.6702 24.5534 33.6702C16.8056 33.6702 10.5229 27.3876 10.5229 19.6398C10.5266 11.892 16.8056 5.60938 24.5534 5.60938ZM24.5534 28.4088C29.3967 28.4088 33.3223 24.4831 33.3223 19.6398C33.3223 14.7965 29.3967 10.8708 24.5534 10.8708C19.7101 10.8708 15.7843 14.7965 15.7843 19.6398C15.7843 24.4831 19.7138 28.4088 24.5534 28.4088Z" fill="#0061FE"/>
<path d="M34.4949 9.7162L24.7787 0H21.2119L23.0027 5.698L23.9388 10.1935L32.9668 12.1989L34.4949 9.7162Z" fill="#0061FE"/>
<path d="M56.8209 5.60938C64.5687 5.60938 70.8513 11.892 70.8513 19.6398C70.8513 27.3876 64.5687 33.6702 56.8209 33.6702C49.0731 33.6702 42.7905 27.3876 42.7905 19.6398C42.7942 11.892 49.0731 5.60938 56.8209 5.60938ZM56.8209 28.4088C61.6642 28.4088 65.5899 24.4831 65.5899 19.6398C65.5899 14.7965 61.6642 10.8708 56.8209 10.8708C51.9776 10.8708 48.0519 14.7965 48.0519 19.6398C48.0519 24.4831 51.9776 28.4088 56.8209 28.4088Z" fill="#0061FE"/>
<path d="M66.763 9.7162L57.0468 0H53.48L55.2708 5.698L56.2069 10.1935L65.2349 12.1989L66.763 9.7162Z" fill="#0061FE"/>
<path d="M81.3742 19.6395C81.3742 26.4179 78.6251 32.5561 74.1814 36.9998L70.4629 33.2814C73.952 29.7886 76.1128 24.9675 76.1128 19.6395C76.1128 14.3115 73.952 9.49035 70.4629 5.99755L74.1814 2.27905C78.6251 6.72275 81.3742 12.8611 81.3742 19.6395Z" fill="#0061FE"/>
<path d="M5.2651 19.6395C5.2651 24.9675 7.4259 29.7886 10.915 33.2814L7.1928 36.9998C2.7491 32.5598 0 26.4179 0 19.6395C0 12.8611 2.7491 6.72275 7.1928 2.27905L10.9113 5.99755C7.4222 9.49035 5.2651 14.3115 5.2651 19.6395Z" fill="#0061FE"/>
<path d="M27.0359 18.4446C26.3218 18.4446 25.7446 17.8674 25.7446 17.1533C25.7446 16.8869 25.826 16.6427 25.9629 16.4355C25.53 16.2468 25.0564 16.1321 24.5569 16.1321C22.6181 16.1321 21.0493 17.7009 21.0493 19.6397C21.0493 21.5785 22.6181 23.1473 24.5569 23.1473C26.4957 23.1473 28.0645 21.5785 28.0645 19.6397C28.0645 19.1328 27.9498 18.6555 27.7574 18.2226C27.5502 18.3632 27.3023 18.4446 27.0359 18.4446Z" fill="#0061FE"/>
<path d="M27.0359 18.4446C26.3218 18.4446 25.7446 17.8674 25.7446 17.1533C25.7446 16.8869 25.826 16.6427 25.9629 16.4355C25.53 16.2468 25.0564 16.1321 24.5569 16.1321C22.6181 16.1321 21.0493 17.7009 21.0493 19.6397C21.0493 21.5785 22.6181 23.1473 24.5569 23.1473C26.4957 23.1473 28.0645 21.5785 28.0645 19.6397C28.0645 19.1328 27.9498 18.6555 27.7574 18.2226C27.5502 18.3632 27.3023 18.4446 27.0359 18.4446Z" fill="#0061FE"/>
<path d="M59.3035 18.4446C58.5894 18.4446 58.0122 17.8674 58.0122 17.1533C58.0122 16.8869 58.0936 16.6427 58.2305 16.4355C57.7976 16.2468 57.324 16.1321 56.8245 16.1321C54.8857 16.1321 53.3169 17.7009 53.3169 19.6397C53.3169 21.5785 54.8857 23.1473 56.8245 23.1473C58.7633 23.1473 60.3321 21.5785 60.3321 19.6397C60.3321 19.1328 60.2174 18.6555 60.025 18.2226C59.8178 18.3632 59.5699 18.4446 59.3035 18.4446Z" fill="#0061FE"/>
</svg>
