<svg width="49" height="48" viewBox="0 0 49 48" fill="none" xmlns="http://www.w3.org/2000/svg">
<path fill-rule="evenodd" clip-rule="evenodd" d="M13.737 6.5C12.5668 6.5 11.474 7.08485 10.8249 8.05855L3.64643 18.8262C3.20696 19.4854 3.15441 20.3296 3.50872 21.0382C7.43693 28.8946 12.896 35.8865 19.5652 41.6029L23.0666 44.6041C23.9873 45.3933 25.346 45.3933 26.2668 44.6041L29.7682 41.6029C36.4373 35.8865 41.8964 28.8946 45.8246 21.0382C46.179 20.3296 46.1264 19.4854 45.6869 18.8262L38.5085 8.05855C37.8594 7.08485 36.7665 6.5 35.5963 6.5H13.737ZM13.321 9.72265C13.4138 9.58355 13.5699 9.5 13.737 9.5H18.4167L14.5864 18.6926C14.4982 18.9043 14.4316 19.1227 14.3867 19.3445C12.9791 19.2397 11.5726 19.1134 10.1678 18.9655L7.35641 18.6696L13.321 9.72265ZM7.22399 21.6722C10.8108 28.2521 15.5471 34.1427 21.2131 39.0625L14.9622 22.3933C13.2575 22.2762 11.5544 22.128 9.85378 21.949L7.22399 21.6722ZM18.2363 22.5803L24.6667 39.728L31.0971 22.5803C26.8124 22.7752 22.521 22.7752 18.2363 22.5803ZM34.3712 22.3933L28.1203 39.0625C33.7863 34.1427 38.5226 28.2521 42.1094 21.6722L39.4796 21.949C37.7789 22.128 36.0759 22.2761 34.3712 22.3933ZM41.977 18.6696L39.1655 18.9655C37.7608 19.1134 36.3543 19.2397 34.9466 19.3445C34.9018 19.1227 34.8352 18.9043 34.7469 18.6926L30.9167 9.5H35.5963C35.7635 9.5 35.9196 9.58355 36.0123 9.72265L41.977 18.6696ZM31.8501 19.5401C27.0644 19.7886 22.269 19.7886 17.4833 19.5401L21.6667 9.5H27.6667L31.8501 19.5401Z" fill="#FF5C00"/>
</svg>
