<svg width="10" height="12" viewBox="0 0 14 24" fill="none" xmlns="http://www.w3.org/2000/svg">
<path d="M9.74609 0.64563C8.21281 0.64563 6.74233 1.25472 5.65813 2.33892C4.57394 3.42311 3.96484 4.8936 3.96484 6.42688V9.64563H0.871094C0.715763 9.64563 0.589844 9.77155 0.589844 9.92688V14.1769C0.589844 14.3322 0.715764 14.4581 0.871094 14.4581H3.96484V23.1769C3.96484 23.3322 4.09076 23.4581 4.24609 23.4581H8.49609C8.65142 23.4581 8.77734 23.3322 8.77734 23.1769V14.4581H11.8985C12.0276 14.4581 12.14 14.3703 12.1713 14.2451L13.2338 9.99509C13.2782 9.81758 13.144 9.64563 12.961 9.64563H8.77734V6.42688C8.77734 6.16995 8.87941 5.92355 9.06108 5.74187C9.24276 5.56019 9.48917 5.45813 9.74609 5.45813H12.9961C13.1514 5.45813 13.2773 5.33221 13.2773 5.17688V0.92688C13.2773 0.77155 13.1514 0.64563 12.9961 0.64563H9.74609Z" fill="#1877F2"/>
</svg>
