<svg width="24" height="24" viewBox="0 0 24 24" fill="none" xmlns="http://www.w3.org/2000/svg">
<path d="M11.996 7.98944C9.7523 7.98944 7.93346 9.80828 7.93346 12.0519C7.93346 14.2956 9.7523 16.1144 11.996 16.1144C14.2396 16.1144 16.0585 14.2956 16.0585 12.0519C16.0585 9.80828 14.2396 7.98944 11.996 7.98944Z" fill="url(#paint0_linear_301_9)"/>
<path fill-rule="evenodd" clip-rule="evenodd" d="M5.45788 0.903773C9.76803 0.42205 14.2239 0.42205 18.5341 0.903773C20.9071 1.16899 22.8211 3.03871 23.0996 5.42003C23.6149 9.82628 23.6149 14.2776 23.0996 18.6838C22.8211 21.0652 20.9071 22.9349 18.5341 23.2001C14.2239 23.6818 9.76803 23.6818 5.45788 23.2001C3.08488 22.9349 1.17089 21.0652 0.892373 18.6838C0.377022 14.2776 0.377022 9.82628 0.892373 5.42003C1.17089 3.03871 3.08488 1.16899 5.45788 0.903773ZM18.246 4.55194C17.5556 4.55194 16.996 5.11158 16.996 5.80194C16.996 6.49229 17.5556 7.05194 18.246 7.05194C18.9363 7.05194 19.496 6.49229 19.496 5.80194C19.496 5.11158 18.9363 4.55194 18.246 4.55194ZM6.05846 12.0519C6.05846 8.77275 8.71677 6.11444 11.996 6.11444C15.2751 6.11444 17.9335 8.77275 17.9335 12.0519C17.9335 15.3311 15.2751 17.9894 11.996 17.9894C8.71677 17.9894 6.05846 15.3311 6.05846 12.0519Z" fill="url(#paint1_linear_301_9)"/>
<defs>
<linearGradient id="paint0_linear_301_9" x1="11.996" y1="0.54248" x2="11.996" y2="23.5614" gradientUnits="userSpaceOnUse">
<stop stop-color="#E1306C"/>
<stop offset="0.245" stop-color="#F22D87"/>
<stop offset="1" stop-color="#FFD600"/>
</linearGradient>
<linearGradient id="paint1_linear_301_9" x1="11.996" y1="0.54248" x2="11.996" y2="23.5614" gradientUnits="userSpaceOnUse">
<stop stop-color="#E1306C"/>
<stop offset="0.245" stop-color="#F22D87"/>
<stop offset="1" stop-color="#FFD600"/>
</linearGradient>
</defs>
</svg>
