<svg width="70" height="32" viewBox="0 0 70 32" fill="none" xmlns="http://www.w3.org/2000/svg">
<path d="M21.1219 4.91187C27.7873 4.91187 33.1913 10.3159 33.1913 16.9813C33.1913 23.6467 27.7873 29.0506 21.1219 29.0506C14.4565 29.0506 9.05249 23.6467 9.05249 16.9813C9.05249 10.3159 14.4551 4.91187 21.1219 4.91187ZM21.1219 24.5245C25.2883 24.5245 28.6651 21.1477 28.6651 16.9813C28.6651 12.8149 25.2883 9.43807 21.1219 9.43807C16.9555 9.43807 13.5787 12.8149 13.5787 16.9813C13.5787 21.1463 16.9555 24.5245 21.1219 24.5245Z" fill="#0061FE"/>
<path d="M29.6717 8.44271L21.3151 0.0847168H18.2449L19.7863 4.98611L20.5927 8.85291L28.3571 10.5791L29.6717 8.44271Z" fill="#0061FE"/>
<path d="M48.8797 4.91187C55.5451 4.91187 60.9491 10.3159 60.9491 16.9813C60.9491 23.6467 55.5451 29.0506 48.8797 29.0506C42.2143 29.0506 36.8103 23.6467 36.8103 16.9813C36.8103 10.3159 42.2143 4.91187 48.8797 4.91187ZM48.8797 24.5245C53.0461 24.5245 56.4229 21.1477 56.4229 16.9813C56.4229 12.8149 53.0461 9.43807 48.8797 9.43807C44.7133 9.43807 41.3365 12.8149 41.3365 16.9813C41.3365 21.1463 44.7133 24.5245 48.8797 24.5245Z" fill="#0061FE"/>
<path d="M57.4307 8.44271L49.0727 0.0847168H46.0039L47.5439 4.98611L48.3503 8.85291L56.1161 10.5791L57.4307 8.44271Z" fill="#0061FE"/>
<path d="M70.0001 16.9814C70.0001 22.8138 67.6355 28.0946 63.8135 31.9152L60.6145 28.7162C63.6175 25.7118 65.4753 21.5636 65.4753 16.9814C65.4753 12.3992 63.6175 8.25101 60.6145 5.24661L63.8135 2.04761C67.6355 5.86821 70.0001 11.149 70.0001 16.9814Z" fill="#0061FE"/>
<path d="M4.5262 16.9814C4.5262 21.5636 6.384 25.7118 9.387 28.7162L6.188 31.9152C2.3646 28.0946 0 22.8124 0 16.9814C0 11.1504 2.3646 5.86821 6.1866 2.04761L9.3856 5.24661C6.3826 8.24961 4.5262 12.3978 4.5262 16.9814Z" fill="#0061FE"/>
<path d="M23.2555 15.9509C22.6423 15.9509 22.1439 15.4539 22.1439 14.8393C22.1439 14.6111 22.2125 14.3997 22.3315 14.2233C21.9605 14.0595 21.5531 13.9629 21.1205 13.9629C19.4545 13.9629 18.1035 15.3139 18.1035 16.9799C18.1035 18.6459 19.4545 19.9969 21.1205 19.9969C22.7865 19.9969 24.1375 18.6459 24.1375 16.9799C24.1375 16.5445 24.0395 16.1343 23.8743 15.7619C23.6979 15.8809 23.4851 15.9509 23.2555 15.9509Z" fill="#0061FE"/>
<path d="M23.2555 15.9509C22.6423 15.9509 22.1439 15.4539 22.1439 14.8393C22.1439 14.6111 22.2125 14.3997 22.3315 14.2233C21.9605 14.0595 21.5531 13.9629 21.1205 13.9629C19.4545 13.9629 18.1035 15.3139 18.1035 16.9799C18.1035 18.6459 19.4545 19.9969 21.1205 19.9969C22.7865 19.9969 24.1375 18.6459 24.1375 16.9799C24.1375 16.5445 24.0395 16.1343 23.8743 15.7619C23.6979 15.8809 23.4851 15.9509 23.2555 15.9509Z" fill="#0061FE"/>
<path d="M51.0145 15.9509C50.4013 15.9509 49.9029 15.4539 49.9029 14.8393C49.9029 14.6111 49.9715 14.3997 50.0905 14.2233C49.7195 14.0595 49.3121 13.9629 48.8795 13.9629C47.2135 13.9629 45.8625 15.3139 45.8625 16.9799C45.8625 18.6459 47.2135 19.9969 48.8795 19.9969C50.5455 19.9969 51.8965 18.6459 51.8965 16.9799C51.8965 16.5445 51.7985 16.1343 51.6333 15.7619C51.4569 15.8809 51.2441 15.9509 51.0145 15.9509Z" fill="#0061FE"/>
</svg>
