<svg width="49" height="48" viewBox="0 0 49 48" fill="none" xmlns="http://www.w3.org/2000/svg">
<path d="M13.5243 4.82605C14.069 4.2019 14.0046 3.25434 13.3805 2.70962C12.7563 2.16489 11.8088 2.22928 11.264 2.85343L8.68043 5.81377C7.21491 7.49298 6.38645 9.63401 6.33997 11.8623L6.22661 17.2976C6.20934 18.1259 6.86676 18.8113 7.69501 18.8286C8.52326 18.8459 9.20869 18.1884 9.22596 17.3602L9.33932 11.9249C9.37112 10.4002 9.93796 8.93533 10.9407 7.78639L13.5243 4.82605Z" fill="#18BBE0"/>
<path fill-rule="evenodd" clip-rule="evenodd" d="M13.1407 15.4016C13.4185 10.9601 17.1017 7.50012 21.5518 7.50012H22.6667V6.00013C22.6667 4.89556 23.5621 4.00013 24.6667 4.00013C25.7712 4.00013 26.6667 4.89556 26.6667 6.00013V7.50012H27.7815C32.2316 7.50012 35.9148 10.9601 36.1926 15.4016L36.6346 22.4685C36.8031 25.1629 37.7077 27.7594 39.2498 29.9753C40.6432 31.9774 39.4028 34.7425 36.9809 35.0332L30.1667 35.8509V38.0001C30.1667 41.0377 27.7042 43.5001 24.6667 43.5001C21.6291 43.5001 19.1667 41.0377 19.1667 38.0001V35.8509L12.3524 35.0332C9.93056 34.7426 8.69012 31.9774 10.0835 29.9753C11.6256 27.7594 12.5302 25.1629 12.6987 22.4685L13.1407 15.4016ZM21.5518 10.5001C18.6858 10.5001 16.3138 12.7285 16.1349 15.5889L15.6929 22.6558C15.4901 25.8981 14.4016 29.0225 12.5459 31.689C12.4451 31.8337 12.5348 32.0335 12.7099 32.0545L20.1852 32.9516C23.1622 33.3088 26.1712 33.3088 29.1482 32.9516L36.6235 32.0545C36.7985 32.0335 36.8882 31.8337 36.7875 31.689C34.9318 29.0225 33.8433 25.8981 33.6405 22.6558L33.1985 15.5889C33.0196 12.7285 30.6475 10.5001 27.7815 10.5001H21.5518ZM24.6667 40.5001C23.286 40.5001 22.1667 39.3808 22.1667 38.0001V36.5001H27.1667V38.0001C27.1667 39.3808 26.0474 40.5001 24.6667 40.5001Z" fill="#18BBE0"/>
<path d="M35.9529 2.70962C35.3287 3.25434 35.2643 4.2019 35.809 4.82605L38.3927 7.78639C39.3954 8.93533 39.9622 10.4002 39.994 11.9249L40.1074 17.3602C40.1247 18.1884 40.8101 18.8459 41.6383 18.8286C42.4666 18.8113 43.124 18.1259 43.1067 17.2976L42.9934 11.8623C42.9469 9.63401 42.1184 7.49298 40.6529 5.81377L38.0693 2.85343C37.5246 2.22928 36.577 2.16489 35.9529 2.70962Z" fill="#18BBE0"/>
</svg>
