<svg width="48" height="48" viewBox="0 0 48 48" fill="none" xmlns="http://www.w3.org/2000/svg">
<path fill-rule="evenodd" clip-rule="evenodd" d="M43.4999 24C43.4999 24.5448 43.2046 25.0467 42.7284 25.3112L38.1637 27.8472C29.1409 32.8599 19.6294 36.9373 9.77753 40.0161L8.44735 40.4317C7.99189 40.5741 7.49589 40.4912 7.11143 40.2085C6.72698 39.9259 6.49994 39.4772 6.49994 39L6.49994 27.5C6.49994 26.718 7.10077 26.0671 7.88032 26.0048L8.33498 25.9684C12.6379 25.6242 16.9077 24.9658 21.1103 23.9994C16.8487 23.0196 12.518 22.3565 8.15374 22.0165L7.88345 21.9955C7.10257 21.9346 6.49994 21.2833 6.49994 20.5L6.49994 9.00001C6.49994 8.52283 6.72698 8.07412 7.11143 7.79147C7.49589 7.50882 7.99189 7.42596 8.44735 7.56829L9.7775 7.98396C19.6294 11.0627 29.1409 15.1402 38.1637 20.1529L42.7284 22.6888C43.2046 22.9533 43.4999 23.4553 43.4999 24ZM38.9112 24L36.7068 22.7753C28.0512 17.9667 18.9369 14.036 9.49994 11.0418L9.49994 19.1191C15.3601 19.6477 21.1565 20.7403 26.8085 22.3824L27.4184 22.5596C28.0597 22.7459 28.5006 23.3337 28.4999 24.0015C28.4993 24.6693 28.0573 25.2562 27.4156 25.4413L26.6345 25.6666C21.0376 27.2808 15.3 28.3567 9.49994 28.8801L9.49994 36.9582C18.9369 33.964 28.0512 30.0334 36.7068 25.2247L38.9112 24Z" fill="#25D366"/>
</svg>
