<svg width="49" height="48" viewBox="0 0 49 48" fill="none" xmlns="http://www.w3.org/2000/svg">
<path d="M35.6665 5C32.3528 5 29.6665 7.68629 29.6665 11C29.6665 11.5289 29.735 12.0419 29.8635 12.5305C29.7217 12.5598 29.5819 12.6102 29.4482 12.6831L23.9352 15.6903L16.9223 19.6976C16.8506 19.7386 16.7836 19.7846 16.7214 19.8349C15.8266 19.3045 14.7821 19 13.6665 19C10.3528 19 7.6665 21.6863 7.6665 25C7.6665 28.3137 10.3528 31 13.6665 31C15.4146 31 16.9882 30.2524 18.0848 29.0594L23.938 32.3112L29.8468 35.5343C29.729 36.0033 29.6665 36.4944 29.6665 37C29.6665 40.3137 32.3528 43 35.6665 43C38.9802 43 41.6665 40.3137 41.6665 37C41.6665 33.6863 38.9802 31 35.6665 31C33.9376 31 32.3795 31.7312 31.2846 32.9013L25.3898 29.6859L19.4991 26.4133C19.6085 25.9601 19.6665 25.4868 19.6665 25C19.6665 23.9206 19.3815 22.9078 18.8826 22.0327L25.3978 18.3097L30.8848 15.3168C31.0189 15.2437 31.1374 15.1531 31.2389 15.0493C32.3359 16.2482 33.9134 17 35.6665 17C38.9802 17 41.6665 14.3137 41.6665 11C41.6665 7.68629 38.9802 5 35.6665 5Z" fill="#FF5C00"/>
</svg>
