<svg width="49" height="48" viewBox="0 0 49 48" fill="none" xmlns="http://www.w3.org/2000/svg">
<path fill-rule="evenodd" clip-rule="evenodd" d="M21.3061 8.22838C22.655 5.90385 26.0118 5.90386 27.3607 8.22838L31.4914 15.3471C31.8721 16.0033 32.5302 16.4511 33.2803 16.5644L40.1396 17.6004C43.1296 18.052 44.1784 21.8271 41.8499 23.7563L36.8521 27.8969C36.1506 28.4781 35.8207 29.3948 35.9911 30.2897L37.3911 37.6417C37.9395 40.5216 34.9163 42.7591 32.3222 41.3933L25.4982 37.8001C24.7691 37.4162 23.8977 37.4162 23.1686 37.8001L16.3446 41.3933C13.7506 42.7591 10.7273 40.5216 11.2757 37.6417L12.6757 30.2897C12.8461 29.3948 12.5162 28.4781 11.8147 27.8969L6.81693 23.7563C4.48837 21.8271 5.53717 18.052 8.52716 17.6004L15.3865 16.5644C16.1366 16.4511 16.7947 16.0033 17.1754 15.3471L21.3061 8.22838ZM24.7659 9.73404C24.5732 9.40197 24.0936 9.40197 23.9009 9.73404L19.7702 16.8528C18.9326 18.2963 17.4848 19.2815 15.8345 19.5307L8.9752 20.5667C8.54805 20.6312 8.39823 21.1705 8.73088 21.4461L13.7287 25.5868C15.2719 26.8653 15.9976 28.8822 15.6227 30.8509L14.2227 38.2028C14.1444 38.6142 14.5763 38.9339 14.9469 38.7388L21.7709 35.1456C23.3749 34.3011 25.2919 34.3011 26.8959 35.1456L33.7199 38.7388C34.0905 38.9339 34.5224 38.6142 34.4441 38.2028L33.0441 30.8509C32.6692 28.8822 33.3949 26.8654 34.9381 25.5868L39.9359 21.4461C40.2686 21.1705 40.1187 20.6312 39.6916 20.5667L32.8323 19.5307C31.182 19.2815 29.7342 18.2963 28.8966 16.8528L24.7659 9.73404Z" fill="#F22D88"/>
</svg>
