<svg width="40" height="36" viewBox="0 0 40 36" fill="none" xmlns="http://www.w3.org/2000/svg">
<path d="M34.0973 16.8703C34.3006 16.8368 34.5036 16.7923 34.7062 16.7368V31.6997C34.7062 32.1073 34.5777 32.4247 34.3295 32.6729C34.0813 32.9211 33.7639 33.0497 33.3562 33.0497H5.95625C5.54861 33.0497 5.23123 32.9211 4.98302 32.6729C4.73482 32.4247 4.60625 32.1073 4.60625 31.6997V16.7368C4.80895 16.7923 5.01198 16.8369 5.2153 16.8703C5.52863 16.9232 5.84233 16.9497 6.15625 16.9497C6.56329 16.9497 7.15275 16.8227 7.90645 16.5884L7.90657 16.5884C8.66216 16.3531 9.53462 15.7393 10.5206 14.7855C11.1042 15.5851 11.784 16.1487 12.5641 16.4581L12.5644 16.4582C13.3914 16.7849 14.2225 16.9497 15.0562 16.9497C15.8017 16.9497 16.6043 16.7454 17.4606 16.3509C18.2573 15.985 18.9914 15.4523 19.6633 14.7573C20.3759 15.4465 21.0667 15.977 21.7361 16.3429C22.4714 16.7462 23.2458 16.9497 24.0562 16.9497C25.2525 16.9497 26.2648 16.7277 27.0793 16.2673C27.775 15.8741 28.3675 15.3865 28.8544 14.8044C29.4145 15.4981 30.0162 16.0231 30.662 16.3699L30.6621 16.37C31.3879 16.7591 32.2216 16.9497 33.1562 16.9497C33.4702 16.9497 33.7839 16.9232 34.0973 16.8703ZM34.0973 16.8703C34.0975 16.8703 34.0977 16.8702 34.0979 16.8702L34.0562 16.6237L34.0968 16.8704C34.097 16.8703 34.0971 16.8703 34.0973 16.8703ZM2.71908 3.72063L2.71898 3.72059L2.7169 3.7275L0.817925 10.0241C0.435906 11.1724 0.442409 12.2737 0.849288 13.3164C1.23401 14.3043 1.85418 15.11 2.70625 15.7289V31.6997C2.70625 32.6267 3.01187 33.4089 3.62947 34.0265C4.24708 34.6441 5.02924 34.9497 5.95625 34.9497H33.3562C34.2833 34.9497 35.0654 34.6441 35.683 34.0265C36.3006 33.4089 36.6062 32.6267 36.6062 31.6997V15.8288C37.4603 15.2072 38.0808 14.3828 38.4661 13.362L38.4662 13.3618C38.8703 12.289 38.8769 11.1726 38.4942 10.0229C38.4939 10.0221 38.4937 10.0214 38.4934 10.0206L36.4949 3.62511L36.4949 3.6251L36.4934 3.62063C36.2136 2.7812 35.7693 2.13233 35.1504 1.69544C34.5321 1.25897 33.7616 1.04968 32.8562 1.04968H6.35625C5.4468 1.04968 4.67339 1.27774 4.05439 1.75109C3.44115 2.22004 2.99863 2.88197 2.71908 3.72063ZM12.3467 13.9617L12.3466 13.9616C11.6933 13.1947 11.4518 12.5913 11.5041 12.1325L12.8718 2.94968H18.7062V11.3997C18.7062 12.4041 18.3715 13.2594 17.6997 13.9789C17.0352 14.6891 16.1622 15.0497 15.0562 15.0497C13.8445 15.0497 12.9551 14.6772 12.3467 13.9617ZM8.43181 14.1446L8.43163 14.1448C7.81358 14.748 7.0604 15.0497 6.15625 15.0497C4.72147 15.0497 3.72821 14.5525 3.11734 13.5897L3.11726 13.5896C2.48937 12.6013 2.3506 11.5697 2.69475 10.4746L2.6948 10.4747L2.69633 10.4694L4.49494 4.27417C4.64971 3.81215 4.87405 3.48599 5.15625 3.27368C5.43313 3.06668 5.82451 2.94968 6.35625 2.94968H10.8684L9.60924 11.8609C9.45061 12.7769 9.05773 13.5349 8.43181 14.1446ZM36.0624 13.6658L36.0623 13.666C35.3097 14.5917 34.3476 15.0497 33.1562 15.0497C32.2521 15.0497 31.4989 14.748 30.8809 14.1448L30.8807 14.1446C30.2548 13.535 29.8619 12.7769 29.7033 11.8609L28.4441 2.94968H32.8562C33.3939 2.94968 33.7907 3.05252 34.0697 3.2331C34.3417 3.41044 34.5634 3.71341 34.7179 4.17536L36.6169 10.4719L36.6173 10.4732C36.9949 11.7004 36.8052 12.7534 36.0624 13.6658ZM34.9562 16.3997C34.8729 16.4275 34.7896 16.4533 34.7062 16.4772L34.9562 16.6626V16.3997ZM20.6062 11.3997V2.94968H26.4414L27.8087 11.9346C27.8954 12.6063 27.6462 13.2932 26.9974 14.0053C26.3767 14.6866 25.4135 15.0497 24.0562 15.0497C23.129 15.0497 22.3263 14.6976 21.6369 13.9769C20.9483 13.257 20.6062 12.4024 20.6062 11.3997Z" fill="#19D4FD" stroke="#19D4FD" stroke-width="0.5"/>
</svg>
