<svg width="49" height="48" viewBox="0 0 49 48" fill="none" xmlns="http://www.w3.org/2000/svg">
<path d="M31.3329 24C31.3329 22.3431 32.676 21 34.3329 21C35.9897 21 37.3329 22.3431 37.3329 24C37.3329 25.6569 35.9897 27 34.3329 27C32.676 27 31.3329 25.6569 31.3329 24Z" fill="#F22D88"/>
<path fill-rule="evenodd" clip-rule="evenodd" d="M41.2155 13.348C39.9001 10.2567 36.9933 8.03446 33.5342 7.67046L32.2305 7.53327C25.6459 6.84037 19.0044 6.88606 12.4299 7.6695L11.566 7.77244C8.22843 8.17016 5.58392 10.7778 5.13937 14.1095C4.26344 20.6741 4.26344 27.326 5.13937 33.8906C5.58392 37.2223 8.22843 39.8299 11.566 40.2276L12.4299 40.3306C19.0044 41.114 25.6459 41.1597 32.2305 40.4668L33.5342 40.3296C36.9933 39.9656 39.9001 37.7433 41.2155 34.652C43.2941 34.0332 44.8804 32.2312 45.1408 30.0048C45.6075 26.0152 45.6075 21.9848 45.1408 17.9953C44.8804 15.7688 43.2941 13.9669 41.2155 13.348ZM31.9165 10.5168C25.5544 9.8473 19.1372 9.89145 12.7849 10.6484L11.921 10.7514C9.94337 10.987 8.37643 12.5321 8.11302 14.5062C7.27222 20.8075 7.27222 27.1925 8.11302 33.4938C8.37643 35.4679 9.94338 37.013 11.921 37.2487L12.7849 37.3516C19.1373 38.1086 25.5544 38.1528 31.9165 37.4833L33.2203 37.3461C34.9214 37.1671 36.4265 36.3286 37.4695 35.0839C34.4532 35.2598 31.3968 35.1812 28.4164 34.8481C25.8777 34.5644 23.8245 32.5653 23.525 30.0048C23.0584 26.0152 23.0584 21.9848 23.525 17.9953C23.8245 15.4348 25.8777 13.4357 28.4164 13.1519C31.3968 12.8188 34.4532 12.7402 37.4695 12.9161C36.4265 11.6715 34.9214 10.833 33.2203 10.654L31.9165 10.5168ZM38.8876 16.0294C38.8889 16.0371 38.8901 16.0448 38.8913 16.0525L38.9033 16.1302L39.3006 16.0685C39.5062 16.0889 39.7114 16.1105 39.9162 16.1334C41.0911 16.2647 42.0266 17.193 42.1612 18.3438C42.6007 22.1018 42.6007 25.8982 42.1612 29.6563C42.0266 30.8071 41.0911 31.7354 39.9163 31.8667C39.7114 31.8896 39.5062 31.9112 39.3006 31.9315L38.9033 31.8698L38.8913 31.9476C38.8901 31.9553 38.8889 31.963 38.8876 31.9706C35.5304 32.2744 32.0873 32.2397 28.7496 31.8667C27.5748 31.7354 26.6393 30.8071 26.5047 29.6563C26.0652 25.8982 26.0652 22.1018 26.5047 18.3438C26.6393 17.193 27.5748 16.2647 28.7496 16.1334C32.0873 15.7603 35.5304 15.7257 38.8876 16.0294Z" fill="#F22D88"/>
</svg>
