<svg width="26" height="26" viewBox="0 0 26 26" fill="none" xmlns="http://www.w3.org/2000/svg">
<path d="M10.2828 7.36279L10.2831 7.36346C10.4463 7.72727 10.7176 8.38794 10.9349 8.91717L10.9384 8.92554C11.0239 9.13394 11.1013 9.32228 11.1616 9.46729C11.1918 9.53985 11.2172 9.60022 11.2369 9.64613C11.2468 9.66911 11.2547 9.68739 11.2609 9.70117C11.2677 9.71649 11.2701 9.72115 11.2692 9.71951L10.8224 9.94383M10.2828 7.36279L19.9773 15.7386C19.9773 15.7386 19.9773 15.7385 19.9772 15.7385C19.8833 15.5803 19.7473 15.483 19.6475 15.4221C19.5514 15.3634 19.4375 15.3088 19.3367 15.2605L19.3232 15.254L19.107 15.7048L19.3232 15.254C19.2678 15.2274 19.2115 15.2004 19.1518 15.1707L19.1517 15.1706C18.9887 15.0895 18.5106 14.8547 18.0359 14.6262C17.5756 14.4046 17.0783 14.1692 16.9025 14.1036L16.9025 14.1036L16.9024 14.1036C16.7648 14.0522 16.5285 13.9641 16.2749 13.994C15.9689 14.03 15.7472 14.2141 15.5885 14.4542C15.391 14.7451 14.8005 15.4344 14.605 15.6613L14.605 15.6613C14.6049 15.6614 14.6048 15.6615 14.6047 15.6616C14.5823 15.6541 14.5506 15.6413 14.5078 15.62C14.4431 15.5878 14.3612 15.5524 14.2816 15.5181L14.2717 15.5138L14.2706 15.5133C13.8347 15.3253 12.9969 14.9638 12.0268 14.1001L12.0259 14.0993C11.137 13.3116 10.5233 12.3266 10.3396 12.0113C10.3416 12.0091 10.3438 12.0068 10.3461 12.0044C10.3602 11.9895 10.3758 11.9739 10.3959 11.9539L10.3961 11.9537C10.5041 11.8461 10.6226 11.7029 10.7216 11.5832L10.7313 11.5715L10.3461 11.2527L10.7313 11.5715C10.7927 11.4973 10.8492 11.429 10.9026 11.3678L10.9027 11.3676C11.0888 11.154 11.1731 10.979 11.2581 10.8024L11.2622 10.794L11.2622 10.7939L11.2965 10.7231C11.4976 10.311 11.3854 9.95079 11.2692 9.71939L10.8224 9.94383M10.2828 7.36279C10.1379 7.04118 9.95644 6.80225 9.71119 6.66009C9.47556 6.52351 9.24425 6.51762 9.12801 6.51466C9.12467 6.51458 9.12142 6.5145 9.11827 6.51441M10.2828 7.36279L9.11827 6.51441M10.8224 9.94383C10.9028 10.1038 10.9522 10.2885 10.8471 10.5038L9.1034 7.01419C9.3321 7.02032 9.58565 7.03269 9.82688 7.56816C9.98684 7.92462 10.2563 8.58082 10.4758 9.11539L10.4758 9.11547L10.4759 9.11559C10.6467 9.53152 10.7872 9.87378 10.8224 9.94383ZM9.11827 6.51441C8.92487 6.50806 8.70237 6.50806 8.49039 6.50806H8.48503C8.15417 6.50806 7.66586 6.62926 7.25892 7.06807C7.24326 7.08495 7.22551 7.10372 7.20389 7.12656L7.20389 7.12657C6.84295 7.50804 6.00007 8.4026 6.00007 10.0854C6.00007 10.9749 6.31924 11.8219 6.64004 12.4559C6.96421 13.0965 7.3122 13.5621 7.40974 13.6926L7.40979 13.6927L7.40983 13.6928L7.41631 13.7014C7.41627 13.7014 7.41637 13.7015 7.41665 13.7019C7.41778 13.7035 7.42172 13.7091 7.42998 13.7212L7.46875 13.7783L7.88288 13.4981L7.46875 13.7783L7.4745 13.7868C7.88933 14.4 9.96108 17.4625 13.1375 18.7116C14.3831 19.2019 15.2072 19.4368 15.8039 19.5368C16.4191 19.64 16.7813 19.5974 17.0756 19.5618C17.1341 19.5547 17.1833 19.5488 17.2316 19.5442C17.2318 19.5442 17.232 19.5442 17.2321 19.5442L17.1852 19.0464M9.11827 6.51441L19.3618 17.5201C19.0898 18.2709 17.7788 18.991 17.1852 19.0464M17.1852 19.0464C17.129 19.0517 17.0731 19.0585 17.0155 19.0654L17.0155 19.0654C16.4715 19.1312 15.7809 19.2148 13.3205 18.2463L17.1852 19.0464ZM7.33188 23.3888C7.22037 23.3284 7.09008 23.3126 6.96738 23.3447L1.20821 24.849L2.74647 19.2653C2.78208 19.1361 2.76429 18.9979 2.6971 18.8819C1.65069 17.0752 1.10033 15.0264 1.10107 12.9413V12.9411C1.10107 6.38795 6.4648 1.05188 13.0484 1.05188C16.2492 1.05188 19.2451 2.29201 21.5011 4.53739C23.7564 6.78228 24.996 9.76898 24.996 12.9472C24.996 19.5002 19.6322 24.8363 13.0485 24.8363H13.0424C11.042 24.8363 9.07703 24.3341 7.33188 23.3888Z" fill="#25D366" stroke="#25D366" stroke-linejoin="round"/>
</svg>
