<svg width="26" height="20" viewBox="0 0 26 20" fill="none" xmlns="http://www.w3.org/2000/svg">
<path fill-rule="evenodd" clip-rule="evenodd" d="M6.73211 1.16507C10.9017 0.838858 15.0904 0.838858 19.26 1.16507L22.0608 1.38419C23.6209 1.50625 24.8972 2.67549 25.1551 4.21896C25.8004 8.08083 25.8004 12.023 25.1551 15.8849C24.8972 17.4283 23.6209 18.5976 22.0608 18.7196L19.26 18.9388C15.0904 19.265 10.9017 19.265 6.73211 18.9388L3.93123 18.7196C2.37114 18.5976 1.09486 17.4283 0.836971 15.8849C0.191713 12.023 0.191713 8.08083 0.836971 4.21896C1.09486 2.67549 2.37114 1.50625 3.93123 1.38419L6.73211 1.16507ZM10.496 13.1396V6.96424C10.496 6.67275 10.814 6.49271 11.0639 6.64268L16.2101 9.73036C16.4528 9.87601 16.4528 10.2278 16.2101 10.3735L11.0639 13.4612C10.814 13.6111 10.496 13.4311 10.496 13.1396Z" fill="#FF0000"/>
</svg>
